<?xml version="1.0" encoding="utf-8"?>
<?xml-stylesheet type="text/xsl" href="rss1.xsl"?>
<rss version="2.0" xmlns:atom="http://www.w3.org/2005/Atom" xmlns:content="http://purl.org/rss/1.0/modules/content/" xmlns:dc="http://purl.org/dc/elements/1.1/" xmlns:media="http://search.yahoo.com/mrss/">
<channel>
 <title>Getty</title>
 <link>http://www.gettyimg.com/</link>
 <atom:link href="http://www.gettyimg.com/" rel="self" type="application/rss+xml" />

 
                <item>
                <title><![CDATA[【Apple Music】WEB-RiP - Enrique Iglesias - Bailando ft. Sean Paul, Descemer Bueno, Gente De Zona [Apple HD Music Video]]]></title>
                <link><![CDATA[https://sharemania.us/threads/enrique-iglesias-bailando-ft-sean-paul-descemer-bueno-gente-de-zona-apple-hd-music-video.241927/]]></link>
                <description><![CDATA[<article>
<blockquote class="messageText SelectQuoteContainer ugc baseHtml">
<span style="font-size: 22px"><b>Enrique Iglesias - Bailando ft. Sean Paul, Descemer Bueno, Gente De Zona [Apple HD Music Video]</b></span><br>
<br>
<img src="https://imgur.com/jSFQeNW.jpg" class="bbCodeImage LbImage" alt="[​IMG]" data-url="https://imgur.com/jSFQeNW.jpg" style=""><br>
<br>
<div class="bbCodeBlock bbCodeCode">
<div class="type">Code:</div>
<pre>General
Format                         : MPEG-4
Codec ID                       : M4V  (isom/iso4/M4V /mp42)
File size                      : 223 MiB
Duration                       : 4 min 33 s
Overall bit rate mode          : Variable
Overall bit rate               : 6 860 kb/s
Movie name                     : Bailando (feat. Sean Paul, Descemer Bueno &amp; Gente de Zona)
Performer                      : Enrique Iglesias
Genre                          : Latin
ContentType                    : Music Video
Recorded date                  : UTC 2014-05-13 07:00:00
Encoded date                   : UTC 2024-04-06 17:01:25
Tagged date                    : UTC 2024-04-06 17:01:25
Copyright                      : ℗ 2014 Universal International Music B.V.
Cover                          : Yes
Rating                         : None
GenreID                        : 1612
AlbumTitleID                   : 90895
AppleStoreCountry              : United Kingdom
AppleStoreCatalogID            : 1444613148

Video
ID                             : 2
Format                         : AVC
Format/Info                    : Advanced Video Codec
Format profile                 : High@L4
Format settings                : CABAC / 5 Ref Frames
Format settings, CABAC         : Yes
Format settings, Reference fra : 5 frames
Codec ID                       : avc1
Codec ID/Info                  : Advanced Video Coding
Duration                       : 4 min 33 s
Bit rate                       : 6 603 kb/s
Maximum bit rate               : 10.8 Mb/s
Width                          : 1 918 pixels
Height                         : 712 pixels
Display aspect ratio           : 2.694
Frame rate mode                : Constant
Frame rate                     : 23.976 (23976/1000) FPS
Color space                    : YUV
Chroma subsampling             : 4:2:0
Bit depth                      : 8 bits
Scan type                      : Progressive
Bits/(Pixel*Frame)             : 0.202
Stream size                    : 215 MiB (96%)
Title                          : Core Media Video
Encoded date                   : UTC 2024-02-21 16:50:04
Tagged date                    : UTC 2024-04-06 17:01:32
Color range                    : Limited
Color primaries                : BT.709
Transfer characteristics       : BT.709
Matrix coefficients            : BT.709
Codec configuration box        : avcC

Audio
ID                             : 1
Format                         : AAC LC
Format/Info                    : Advanced Audio Codec Low Complexity
Codec ID                       : mp4a-40-2
Duration                       : 4 min 33 s
Duration_LastFrame             : -4 ms
Bit rate mode                  : Variable
Bit rate                       : 247 kb/s
Maximum bit rate               : 327 kb/s
Channel(s)                     : 2 channels
Channel layout                 : L R
Sampling rate                  : 48.0 kHz
Frame rate                     : 46.875 FPS (1024 SPF)
Compression mode               : Lossy
Stream size                    : 8.04 MiB (4%)
Title                          : Core Media Audio
Encoded date                   : UTC 2024-02-21 16:50:01
Tagged date                    : UTC 2024-04-06 17:01:32
</pre>
</div>
<div class="bbCodeBlock bbCodeVfcHH HiddenContent">
<div class="attribution type">Hidden Content:</div>
<blockquote>You must reply before you can see the hidden data contained here.</blockquote>
</div>
<div class="messageTextEndMarker">&nbsp;</div>
</blockquote>
</article>]]></description>
                <author><![CDATA[abby0511]]></author>
                </item>

                
                <item>
                <title><![CDATA[【Singles (lossless)】WAV - Mariah Carey - Through The Rain (2024 Mix) [WAV 16bits/44.1kHz]]]></title>
                <link><![CDATA[https://sharemania.us/threads/mariah-carey-through-the-rain-2024-mix-wav-16bits-44-1khz.241929/]]></link>
                <description><![CDATA[<article>
<blockquote class="messageText SelectQuoteContainer ugc baseHtml">
<b><img src="https://www.mariahcareynetwork.com/images/music/singles/cover/ttr-2.jpg" class="bbCodeImage LbImage" alt="[​IMG]" data-url="https://www.mariahcareynetwork.com/images/music/singles/cover/ttr-2.jpg" style=""> <br>
<br>
Genre: </b>R&amp;B • Soul<br>
<b>Released: </b>September 30, 2002 / 2024<br>
<b>Length: </b>04:49<br>
<b>Re-Mixed &amp; Mastered: </b>@EVANCIPATION<br>
<br>
Remixed from the original master,<br>
hope you enjoy it!<br>
<br>
<div style="text-align: center">
<div class="bbCodeBlock bbCodeVfcHH HiddenContent">
<div class="attribution type">Hidden Content:</div>
<blockquote>You must reply before you can see the hidden data contained here.</blockquote>
</div></div>
<div class="messageTextEndMarker">&nbsp;</div>
</blockquote>
</article>]]></description>
                <author><![CDATA[evanmimi0811]]></author>
                </item>

                
                <item>
                <title><![CDATA[【Albums (lossless)】FLAC - RAIMUNDOS - 1999 - Só No Forevis [16bit-44.1kHz]]]></title>
                <link><![CDATA[https://sharemania.us/threads/raimundos-1999-s%C3%B3-no-forevis-16bit-44-1khz.241928/]]></link>
                <description><![CDATA[<article>
<blockquote class="messageText SelectQuoteContainer ugc baseHtml">
Thank you.
<div class="messageTextEndMarker">&nbsp;</div>
</blockquote>
</article>]]></description>
                <author><![CDATA[XRB80]]></author>
                </item>

                </channel></rss>